<?xml version="1.0" encoding="utf-8"?>
<!-- Generator: Adobe Illustrator 26.3.1, SVG Export Plug-In . SVG Version: 6.00 Build 0)  -->
<svg version="1.1" xmlns="http://www.w3.org/2000/svg" xmlns:xlink="http://www.w3.org/1999/xlink" x="0px" y="0px"
	 viewBox="0 0 500 500" style="enable-background:new 0 0 500 500;" xml:space="preserve">
<style type="text/css">
	.st0{fill:#326B96;}
	.st1{fill:#FFFFFF;}
	.st2{fill:#255070;}
</style>
<g id="Layer_1">
	<g>
		<circle class="st0" cx="663.83" cy="-157.49" r="117.38"/>
	</g>
</g>
<g id="Layer_2">
	<g>
		<g>
			<g>
				<path class="st0" d="M228.04,332.97c-0.07,0-0.15,0-0.22-0.01c-2.33-0.32-4.57-1.09-6.64-2.29
					c-25.17-14.61-40.81-41.74-40.81-70.81c0-13.31,3.28-26.54,9.49-38.25c0.21-0.4,0.59-0.7,1.03-0.81
					c0.14-0.04,0.28-0.05,0.42-0.05c0.31,0,0.61,0.09,0.88,0.26c0.25,0.16,0.48,0.33,0.71,0.52c1.97,1.63,2.83,4.09,2.35,6.74
					c-1.62,8.98-2.91,32.18-1.44,41.02c0.46,2.78,2.28,7.97,5.27,15.01c2.57,7.02,5.75,12.81,5.89,13.05
					c-0.03-0.06-2.93-6.1-5.79-12.82c-1.9-5.18-2.97-9.62-3.21-13.27c-0.3-4.72,1.99-8.39,5.84-9.33c0.6-0.15,1.22-0.22,1.85-0.22
					c4.21,0,8.05,3.03,10.29,8.11l1.13,2.55c9.23,20.79,18.37,43.26,16.14,52.31c-0.49,2.01-0.89,3.8-1.23,5.38l-0.36,1.63
					C229.47,332.45,228.8,332.97,228.04,332.97z"/>
				<path class="st1" d="M191.3,222.38c0.19,0.12,0.37,0.25,0.55,0.4c1.5,1.24,2.15,3.13,1.78,5.19
					c-1.63,9.08-2.94,32.59-1.44,41.57c0.58,3.49,2.95,9.66,5.37,15.38c2.57,7.05,5.75,12.82,5.96,13.21
					c0.3,0.54,0.85,0.84,1.43,0.84c0.25,0,0.51-0.06,0.75-0.18c0.79-0.41,1.11-1.36,0.72-2.16c-0.05-0.11-2.94-6.13-5.75-12.75
					c-1.52-4.15-2.82-8.72-3.08-12.73c-0.26-3.95,1.51-6.88,4.6-7.64c0.47-0.11,0.96-0.17,1.47-0.17c3.01,0,6.57,2.08,8.8,7.14
					l1.13,2.56c5.52,12.43,18.44,41.53,16.05,51.26c-0.5,2.05-0.9,3.86-1.25,5.47c-0.12,0.55-0.24,1.08-0.35,1.59
					c-2.04-0.28-4.08-0.95-6.04-2.08c-23.91-13.88-40-39.76-40-69.39C182.01,246.32,185.37,233.57,191.3,222.38 M191.3,219.11
					c-0.28,0-0.56,0.04-0.83,0.11c-0.88,0.23-1.63,0.82-2.06,1.63c-6.33,11.94-9.68,25.44-9.68,39.02c0,14.89,3.97,29.5,11.48,42.27
					c7.29,12.38,17.71,22.74,30.14,29.95c2.26,1.31,4.69,2.15,7.24,2.5c0.15,0.02,0.3,0.03,0.44,0.03c1.51,0,2.85-1.05,3.19-2.56
					c0.11-0.52,0.23-1.05,0.35-1.6c0.34-1.58,0.73-3.37,1.23-5.38c2.34-9.53-6.89-32.32-16.23-53.36l-1.14-2.56
					c-2.51-5.68-6.92-9.08-11.79-9.08c-0.76,0-1.52,0.09-2.24,0.27c-3.02,0.74-5.25,2.81-6.35,5.69
					c-0.81-10.07,0.38-29.68,1.78-37.48c0.58-3.2-0.51-6.29-2.92-8.28c-0.27-0.22-0.56-0.43-0.87-0.63
					C192.53,219.29,191.92,219.11,191.3,219.11L191.3,219.11z"/>
			</g>
			<g>
				<path class="st0" d="M231.36,333.08c-0.47,0-0.92-0.2-1.23-0.56c-0.34-0.39-0.47-0.92-0.36-1.42l0.22-1
					c0.33-1.5,0.73-3.37,1.24-5.42c2.53-10.28-10.08-38.67-16.14-52.31l-1.13-2.55c-2.24-5.08-6.09-8.11-10.3-8.11
					c-0.63,0-1.26,0.07-1.85,0.22c-2.43,0.6-4.28,2.26-5.21,4.69c-0.24,0.64-0.86,1.05-1.53,1.05c-0.08,0-0.15,0-0.23-0.02
					c-0.76-0.11-1.34-0.72-1.4-1.49c-0.8-9.92,0.34-29.76,1.8-37.9c0.48-2.65-0.38-5.1-2.35-6.73c-0.24-0.2-0.53-0.4-0.86-0.6
					c-0.76-0.46-1.01-1.45-0.56-2.22c7.16-12.27,17.43-22.52,29.71-29.64c2.77-1.61,5.88-2.46,9.01-2.46
					c9.89,0,17.94,8.04,17.94,17.91v110.7c0,9.49-7.15,17.17-16.64,17.86C231.44,333.08,231.4,333.08,231.36,333.08z"/>
				<path class="st1" d="M230.19,188.24c8.5,0,16.3,6.77,16.3,16.28v110.7c0,9.07-7.09,15.64-15.13,16.23
					c0.07-0.33,0.14-0.66,0.22-1c0.34-1.58,0.74-3.38,1.23-5.38c2.66-10.82-9.63-38.5-16.23-53.37l-1.13-2.55
					c-2.84-6.44-7.63-9.08-11.79-9.08c-0.77,0-1.52,0.09-2.24,0.27c-3.02,0.74-5.25,2.81-6.35,5.69
					c-0.81-10.07,0.38-29.68,1.78-37.48c0.58-3.25-0.48-6.27-2.92-8.28c-0.33-0.28-0.69-0.52-1.05-0.74
					c7.02-12.03,17.07-22.06,29.11-29.05C224.65,188.94,227.45,188.24,230.19,188.24 M230.19,184.97c-3.41,0-6.81,0.93-9.83,2.68
					c-12.52,7.26-23,17.72-30.3,30.23c-0.9,1.54-0.4,3.52,1.13,4.44c0.26,0.16,0.48,0.31,0.66,0.46c1.52,1.26,2.16,3.1,1.78,5.19
					c-1.5,8.31-2.65,28.02-1.82,38.32c0.12,1.52,1.28,2.76,2.79,2.97c0.16,0.02,0.31,0.03,0.47,0.03c1.34,0,2.56-0.82,3.05-2.1
					c0.52-1.35,1.64-3.09,4.07-3.68c0.47-0.11,0.96-0.17,1.46-0.17c3.54,0,6.83,2.67,8.8,7.14l1.13,2.55
					c5.99,13.48,18.44,41.53,16.05,51.26c-0.51,2.06-0.9,3.87-1.25,5.47l-0.22,0.99c-0.22,1.01,0.05,2.06,0.72,2.84
					c0.62,0.72,1.53,1.13,2.47,1.13c0.08,0,0.16,0,0.24-0.01c10.35-0.76,18.15-9.14,18.15-19.49v-110.7
					C249.76,193.74,240.98,184.97,230.19,184.97L230.19,184.97z"/>
			</g>
		</g>
		<g>
			<g>
				<path class="st0" d="M271.96,332.97c-0.75,0-1.42-0.52-1.59-1.28l-0.35-1.6c-0.35-1.59-0.74-3.39-1.24-5.42
					c-2.23-9.06,6.91-31.53,16.14-52.31l1.13-2.56c2.24-5.08,6.09-8.11,10.29-8.11c0.63,0,1.25,0.07,1.85,0.22
					c3.85,0.94,6.15,4.61,5.84,9.33c-0.24,3.65-1.3,8.09-3.18,13.18c-2.64,6.21-5.3,11.81-5.8,12.87c0.12-0.21,3.31-6,5.84-12.95
					c3.01-7.11,4.83-12.3,5.3-15.08c1.47-8.84,0.18-32.04-1.44-41.02c-0.48-2.65,0.38-5.1,2.35-6.73c0.23-0.19,0.47-0.36,0.71-0.52
					c0.27-0.17,0.57-0.26,0.88-0.26c0.14,0,0.28,0.02,0.41,0.05c0.44,0.12,0.82,0.41,1.03,0.82c6.21,11.71,9.49,24.94,9.49,38.25
					c0,29.07-15.64,56.2-40.81,70.81c-2.07,1.2-4.31,1.97-6.64,2.29C272.1,332.97,272.03,332.97,271.96,332.97z"/>
				<path class="st1" d="M308.7,222.38c5.93,11.19,9.3,23.94,9.3,37.49c0,29.64-16.08,55.52-40,69.39c-1.96,1.13-4,1.81-6.04,2.08
					c-0.11-0.51-0.23-1.04-0.35-1.59c-0.35-1.6-0.74-3.42-1.25-5.47c-2.39-9.73,10.53-38.83,16.05-51.26l1.13-2.56
					c2.23-5.06,5.79-7.14,8.8-7.14c0.51,0,1,0.06,1.46,0.17c3.09,0.76,4.85,3.68,4.6,7.64c-0.26,4.01-1.56,8.58-3.08,12.73
					c-2.82,6.62-5.7,12.65-5.76,12.76c-0.38,0.8-0.06,1.75,0.72,2.16c0.24,0.12,0.5,0.18,0.75,0.18c0.58,0,1.13-0.31,1.43-0.84
					c0.21-0.38,3.39-6.16,5.96-13.21c2.42-5.71,4.79-11.88,5.37-15.37c1.5-8.99,0.19-32.49-1.44-41.57
					c-0.37-2.05,0.28-3.94,1.78-5.19C308.32,222.63,308.51,222.5,308.7,222.38 M308.7,219.11c-0.62,0-1.23,0.18-1.76,0.52
					c-0.32,0.2-0.6,0.41-0.87,0.63c-2.4,1.99-3.49,5.09-2.92,8.28c1.4,7.8,2.6,27.41,1.78,37.48c-1.1-2.88-3.33-4.95-6.35-5.69
					c-0.72-0.18-1.48-0.27-2.24-0.27c-4.87,0-9.28,3.4-11.79,9.09l-1.13,2.55c-9.34,21.04-18.58,43.83-16.23,53.37
					c0.49,2.01,0.88,3.8,1.23,5.38c0.12,0.56,0.24,1.09,0.35,1.6c0.34,1.51,1.68,2.56,3.19,2.56c0.15,0,0.29-0.01,0.44-0.03
					c2.55-0.35,4.98-1.18,7.24-2.49c12.43-7.21,22.85-17.57,30.14-29.95c7.51-12.76,11.48-27.38,11.48-42.27
					c0-13.58-3.35-27.07-9.68-39.02c-0.43-0.81-1.17-1.4-2.06-1.63C309.25,219.14,308.97,219.11,308.7,219.11L308.7,219.11z"/>
			</g>
			<g>
				<path class="st0" d="M268.52,333.08c-9.49-0.7-16.64-8.38-16.64-17.86v-110.7c0-9.88,8.04-17.91,17.93-17.91
					c3.12,0,6.24,0.85,9.01,2.46c12.27,7.12,22.55,17.37,29.71,29.64c0.45,0.77,0.2,1.76-0.56,2.22c-0.33,0.2-0.61,0.4-0.86,0.6
					c-1.97,1.63-2.83,4.09-2.35,6.73c1.47,8.14,2.6,27.98,1.8,37.9c-0.06,0.76-0.64,1.38-1.4,1.49c-0.08,0.01-0.16,0.02-0.23,0.02
					c-0.67,0-1.28-0.41-1.53-1.05c-0.93-2.43-2.78-4.09-5.21-4.69c-0.59-0.14-1.22-0.22-1.85-0.22c-4.21,0-8.06,3.03-10.3,8.11
					l-1.13,2.55c-6.06,13.65-18.67,42.04-16.14,52.32c0.5,2.02,0.89,3.83,1.24,5.42l0.22,1c0.11,0.5-0.02,1.03-0.36,1.42
					c-0.31,0.36-0.76,0.56-1.24,0.56C268.6,333.08,268.56,333.08,268.52,333.08z"/>
				<path class="st1" d="M269.81,188.24c2.73,0,5.54,0.7,8.19,2.23c12.04,6.99,22.1,17.02,29.11,29.05
					c-0.36,0.22-0.72,0.46-1.05,0.74c-2.44,2.02-3.5,5.04-2.92,8.28c1.4,7.8,2.6,27.41,1.78,37.48c-1.1-2.88-3.33-4.95-6.35-5.69
					c-0.71-0.17-1.47-0.27-2.24-0.27c-4.17,0-8.95,2.64-11.79,9.09l-1.13,2.55c-6.6,14.87-18.89,42.55-16.23,53.37
					c0.49,2,0.88,3.8,1.23,5.38c0.07,0.34,0.15,0.67,0.22,1c-8.03-0.59-15.13-7.17-15.13-16.23v-110.7
					C253.51,195.01,261.31,188.23,269.81,188.24 M269.81,184.97c-5,0-9.96,2-13.6,5.48c-3.85,3.68-5.97,8.68-5.97,14.07v110.7
					c0,10.35,7.8,18.73,18.15,19.49c0.08,0.01,0.16,0.01,0.24,0.01c0.94,0,1.85-0.41,2.47-1.13c0.68-0.78,0.94-1.83,0.72-2.84
					l-0.22-1c-0.33-1.51-0.74-3.39-1.25-5.46c-2.39-9.73,10.06-37.78,16.04-51.26l1.13-2.56c1.97-4.47,5.26-7.14,8.8-7.14
					c0.5,0,1,0.06,1.46,0.17c2.43,0.59,3.55,2.33,4.07,3.68c0.49,1.28,1.71,2.1,3.05,2.1c0.15,0,0.31-0.01,0.46-0.03
					c1.51-0.22,2.67-1.45,2.79-2.97c0.83-10.3-0.33-30.01-1.82-38.32c-0.37-2.08,0.26-3.92,1.78-5.19c0.19-0.15,0.4-0.3,0.66-0.46
					c1.52-0.93,2.02-2.9,1.13-4.44c-7.3-12.51-17.78-22.96-30.3-30.23C276.62,185.89,273.22,184.97,269.81,184.97
					C269.81,184.97,269.81,184.97,269.81,184.97L269.81,184.97z"/>
			</g>
		</g>
		<path class="st2" d="M170.49,347.12c-1.28,1.05-2.07,2.59-2.15,4.25c-0.08,1.67,0.52,3.24,1.71,4.41l16.64,16.53
			c2.21,2.2,5.74,2.27,8.04,0.16c6.94-6.36,19.42-18.02,24.99-24.57c6.34-7.46,7.12-11.04,8.67-18.15c0.35-1.6,0.74-3.42,1.25-5.47
			c2.39-9.73-10.53-38.83-16.05-51.26l-1.13-2.56c-2.61-5.91-7.03-7.76-10.26-6.96c-3.09,0.76-4.85,3.68-4.6,7.64
			c0.26,4.01,1.56,8.58,3.08,12.73c2.82,6.62,5.7,12.64,5.75,12.75c0.38,0.8,0.06,1.75-0.72,2.16c-0.79,0.41-1.75,0.11-2.18-0.66
			c-0.21-0.38-3.39-6.16-5.96-13.21c-2.42-5.71-4.79-11.89-5.37-15.38c-1.5-8.98-0.19-32.49,1.44-41.57
			c0.37-2.05-0.28-3.94-1.78-5.19c-1.49-1.23-3.48-1.59-5.2-0.93c-2.15,0.83-3.61,3.14-4.12,6.53l-0.12,0.8
			c-1.53,10.31-5.11,34.44-4.94,52.52c0.09,9.15,2.82,19.19,5.24,28.04c2.57,9.43,4.6,16.89,3.1,21.4
			c-1.86,5.59-5.33,8.24-10.59,12.27C173.82,344.48,172.22,345.71,170.49,347.12z"/>
		<path class="st2" d="M297.81,263.5c-0.47-0.11-0.96-0.17-1.46-0.17c-3.01,0-6.57,2.08-8.8,7.14l-1.13,2.56
			c-5.52,12.43-18.44,41.53-16.05,51.26c0.5,2.05,0.9,3.86,1.25,5.47c1.55,7.12,2.33,10.69,8.66,18.15
			c5.57,6.56,18.05,18.21,24.99,24.57c2.3,2.11,5.83,2.04,8.04-0.16l16.64-16.53c1.18-1.18,1.79-2.74,1.71-4.42
			c-0.08-1.65-0.87-3.2-2.15-4.25c-1.73-1.41-3.33-2.64-4.74-3.72c-5.25-4.03-8.73-6.69-10.59-12.27c-1.5-4.51,0.53-11.97,3.1-21.4
			c2.41-8.85,5.15-18.89,5.24-28.04c0.17-18.07-3.41-42.2-4.93-52.5l-0.12-0.81c-0.5-3.38-1.96-5.7-4.12-6.53
			c-1.72-0.66-3.71-0.3-5.2,0.93c-1.5,1.24-2.15,3.13-1.78,5.19c1.64,9.08,2.94,32.59,1.44,41.57c-0.58,3.49-2.95,9.66-5.37,15.37
			c-2.57,7.05-5.75,12.83-5.96,13.21c-0.43,0.77-1.39,1.07-2.18,0.66c-0.79-0.41-1.11-1.36-0.72-2.16
			c0.05-0.11,2.94-6.13,5.76-12.76c1.52-4.15,2.82-8.72,3.08-12.73C302.66,267.19,300.9,264.26,297.81,263.5z"/>
	</g>
</g>
</svg>
